# xmcd
# 
# Track frame offsets:
#     150
#     17630
#     33758
#     48106
#     62128
#     79564
#     95208
#     108022
#     125108
#     138704
#     150869
#     168216
#     186124
# 
# Disc length: 2851
# 
# Revision: 2
# Processed by: cddbd v1.5.2PL0 Copyright (c) Steve Scherf et al.
# Submitted via: fre:ac v1.0.27
# 
DISCID=9c0b210d
DTITLE=Ricky Skaggs and Sharon White - Hearts Like Ours
DYEAR=2014
DGENRE=Folk
TTITLE0=I Run To You
TTITLE1=Love Can't Ever Get Better Than This
TTITLE2=When I'm Good And Gone
TTITLE3=Forever's Not Long Enough
TTITLE4=If I Needed You
TTITLE5=I Was Meant To Love You
TTITLE6=It Takes Three
TTITLE7=Reasons To Hang On
TTITLE8=Hold On Tight (Let It Go)
TTITLE9=No Doubt About It
TTITLE10=Home Is Wherever You Are
TTITLE11=Hearts Like Ours
TTITLE12=Be Kind
EXTD=
EXTT0=
EXTT1=
EXTT2=
EXTT3=
EXTT4=
EXTT5=
EXTT6=
EXTT7=
EXTT8=
EXTT9=
EXTT10=
EXTT11=
EXTT12=
PLAYORDER=
